<svg width="18" height="17" fill="none" xmlns="http://www.w3.org/2000/svg"><path d="M11.17 3.143h5.901v12.021c0 .518-.465.836-.97.836H1.893C1.388 16 1 15.602 1 15.084V3.143h5.823" stroke="#2F3035" stroke-width="1.5" stroke-miterlimit="10"/><path d="M11.385 3.143h5.632c.038 0 .077-.032.038-.064L14.958 1H3.113L1.016 3.079c-.039.032 0 .064.039.064h5.631" stroke="#2F3035" stroke-width="1.5" stroke-miterlimit="10"/><path d="M11.714 3.143L10.782 1h-3.4L6.357 3.143m5.357 0v4.286l-2.61-1.506-2.747 1.506V3.143m4.629 8.571H7.122c-.443 0-.765-.438-.765-.925v-.292c0-.536.362-.926.765-.926h3.824c.443 0 .765.439.765.926v.292c.04.536-.322.925-.725.925z" stroke="#2F3035" stroke-width="1.5" stroke-miterlimit="10"/></svg>