<svg width="17" height="17" fill="none" xmlns="http://www.w3.org/2000/svg"><path d="M6.142 1.983c.595.677.892 1.593.892 2.748 0 1.155-.297 2.075-.892 2.758-.595.684-1.391 1.026-2.39 1.026-.997 0-1.793-.342-2.388-1.026C.776 6.806.482 5.886.482 4.731s.294-2.071.882-2.748C1.958 1.299 2.754.958 3.753.958c.998 0 1.794.341 2.39 1.025zm-2.39 4.922c.384 0 .681-.192.893-.574.219-.39.328-.923.328-1.6 0-.684-.11-1.217-.328-1.6-.212-.39-.51-.584-.892-.584-.376 0-.673.195-.892.584-.212.383-.318.916-.318 1.6 0 .677.106 1.21.318 1.6.219.382.516.574.892.574zM3.959 16H1.723l5.732-7.844 5.085-6.952h2.215L9.177 8.843 3.958 16zm11.156-6.347c.595.683.892 1.603.892 2.758s-.297 2.075-.892 2.758c-.595.677-1.39 1.016-2.389 1.016-.998 0-1.794-.339-2.39-1.016-.587-.683-.88-1.603-.88-2.758s.293-2.075.88-2.758c.596-.684 1.392-1.026 2.39-1.026.998 0 1.795.342 2.39 1.026zM11.833 14c.219.39.516.584.892.584s.673-.195.892-.585c.219-.39.328-.922.328-1.6 0-.676-.11-1.21-.328-1.599-.219-.39-.516-.584-.892-.584s-.673.195-.892.584c-.212.39-.318.923-.318 1.6s.106 1.21.318 1.6z" fill="#2F3035"/></svg>