<svg width="7" height="13" fill="none" xmlns="http://www.w3.org/2000/svg"><path d="M5.078 6.79h-.001a22.31 22.31 0 00-1.308-.493V1.635c1.503.1 2.685 1.028 2.685 2.157 0 .15.12.27.269.27a.27.27 0 00.269-.27c0-1.423-1.423-2.591-3.223-2.698V.27a.27.27 0 00-.27-.27.27.27 0 00-.268.27v.824C1.431 1.2.008 2.369.008 3.792c0 1.03.736 1.958 1.92 2.42.623.244.983.368 1.304.476v4.677c-1.504-.1-2.687-1.028-2.687-2.157a.27.27 0 00-.268-.27.27.27 0 00-.269.27c0 1.423 1.423 2.591 3.223 2.698v.823c0 .15.12.271.269.271a.27.27 0 00.269-.27v-.824c1.8-.107 3.223-1.275 3.223-2.698 0-1.03-.734-1.955-1.914-2.418zM3.23 6.117a25.213 25.213 0 01-1.11-.41C1.149 5.326.545 4.592.545 3.791c0-1.129 1.183-2.057 2.686-2.157v4.482zm.538 5.248V6.87a22.714 22.714 0 011.11.425c.972.379 1.575 1.113 1.575 1.914 0 1.129-1.182 2.057-2.685 2.157z" fill="#C4C4C4"/></svg>