<svg width="13" height="19" fill="none" xmlns="http://www.w3.org/2000/svg"><path d="M7.63 17.54V19H5.487v-1.528A9.796 9.796 0 010 15.032l1.696-2.03a8.144 8.144 0 003.791 1.961v-4.448C2.59 9.785.636 8.782.636 6.09c0-2.463 1.954-4.357 4.851-4.699V0H7.63v1.414a8.898 8.898 0 014.946 2.121l-1.602 2.099a7.782 7.782 0 00-3.344-1.71V8.21c3.227.707 5.37 1.78 5.37 4.562 0 2.623-1.955 4.54-5.37 4.767zM5.487 7.664V3.878C4.333 4.15 3.603 4.95 3.603 5.839c0 .912.612 1.391 1.884 1.825zm4.57 5.383c0-1.05-.755-1.529-2.427-2.007v4.06c1.602-.183 2.426-1.05 2.426-2.053z" fill="#1C62CD"/></svg>