<svg width="30" height="30" fill="none" xmlns="http://www.w3.org/2000/svg"><path d="M17.419 29.805zm.3-.052c-.06.012-.12.022-.18.032.06-.01.12-.02.18-.032zm-1.012.15zm.288-.036zm1.132-.195zm1.013-.252c-.042.013-.085.024-.127.036l.127-.035zm-.306.085l-.14.036.14-.037zm-.401.1l-.148.033.148-.033zm-2.171.342zM30 15c0-8.283-6.717-15-15-15C6.717 0 0 6.717 0 15c0 8.283 6.717 15 15 15l.264-.003V18.32H12.04v-3.756h3.223V11.8c0-3.205 1.956-4.95 4.816-4.95 1.369 0 2.546.103 2.889.148v3.35h-1.972c-1.555 0-1.857.74-1.857 1.824v2.392h3.72l-.485 3.756H19.14v11.1C25.41 27.623 30 21.848 30 15zM15.991 29.967zm-.478.023z" fill="#2F3035"/></svg>