<svg width="13" height="19" viewBox="0 0 13 19" fill="none" xmlns="http://www.w3.org/2000/svg">
<path d="M7.63048 17.5402V19H5.48722V17.4717C3.43575 17.2474 1.51257 16.392 0 15.0312L1.69559 13.0011C2.75272 13.9755 4.06323 14.6536 5.48722 14.963V10.515C2.59024 9.78502 0.635807 8.78205 0.635807 6.09C0.635807 3.6267 2.59041 1.73281 5.48722 1.39133V0H7.63048V1.41428C9.46877 1.59839 11.1998 2.34084 12.5761 3.53543L10.9742 5.63381C10.0239 4.80321 8.87458 4.21529 7.63048 3.92329V8.21133C10.8568 8.91837 13 9.99034 13 12.7729C13 15.3962 11.0451 17.3121 7.63048 17.5402ZM5.48722 7.66387V3.87756C4.33337 4.15121 3.60299 4.94953 3.60299 5.83913C3.60299 6.7515 4.21545 7.23046 5.48722 7.66387ZM10.0561 13.0466C10.0561 11.9975 9.30237 11.5185 7.63048 11.0396V15.0996C9.23182 14.9171 10.0561 14.0505 10.0561 13.0466Z" fill="#1C62CD"/>
</svg>
