<svg width="7" height="13" viewBox="0 0 7 13" fill="none" xmlns="http://www.w3.org/2000/svg">
<path d="M5.07758 6.79034C5.07706 6.79034 5.07705 6.78981 5.07705 6.78981C4.45179 6.53577 4.0892 6.40578 3.76904 6.2969V1.63475C5.27205 1.73497 6.45434 2.66337 6.45434 3.79166C6.45434 3.94116 6.57468 4.0625 6.72294 4.0625C6.8712 4.0625 6.99153 3.94116 6.99153 3.79166C6.99153 2.36869 5.56857 1.20087 3.76851 1.09362V0.270842C3.76851 0.121342 3.64817 0 3.49992 0C3.35166 0 3.23132 0.121342 3.23132 0.270842V1.09362C1.43126 1.20087 0.00830078 2.36872 0.00830078 3.79166C0.00830078 4.82244 0.743678 5.74978 1.92708 6.21182H1.92816C2.55074 6.4561 2.91066 6.58016 3.23188 6.68794V11.3652C1.72781 11.265 0.545488 10.3366 0.545488 9.20832C0.545488 9.05882 0.425153 8.93747 0.276894 8.93747C0.128635 8.93747 0.00830078 9.05882 0.00830078 9.20832C0.00830078 10.6313 1.43126 11.7991 3.23132 11.9063V12.7291C3.23132 12.8786 3.35166 13 3.49992 13C3.64817 13 3.76851 12.8786 3.76851 12.7291V11.9063C5.56857 11.7991 6.99153 10.6313 6.99153 9.20832C6.99153 8.17862 6.25829 7.25291 5.07758 6.79034ZM3.23132 6.1165C2.95467 6.02225 2.62648 5.90472 2.12152 5.707L2.12099 5.70647C1.14925 5.32731 0.545462 4.59334 0.545462 3.79168C0.545462 2.6634 1.72778 1.73497 3.23132 1.63478V6.1165ZM3.76851 11.3652V6.86941C4.04408 6.96582 4.37282 7.08769 4.87562 7.29244C4.87614 7.29244 4.8767 7.29244 4.87776 7.29297C4.87829 7.29297 4.87884 7.29351 4.87937 7.29407C5.85058 7.67269 6.45434 8.40666 6.45434 9.20832C6.45434 10.3366 5.27205 11.265 3.76851 11.3652Z" fill="#C4C4C4"/>
</svg>
